<svg width="220" height="83" viewBox="0 0 220 83" fill="none" xmlns="http://www.w3.org/2000/svg">
<mask id="path-1-outside-1_611_16136" maskUnits="userSpaceOnUse" x="8" y="16" width="204" height="51" fill="black">
<rect fill="white" x="8" y="16" width="204" height="51"/>
<path d="M29.5978 18.624C32.7124 18.624 35.4431 19.072 37.7898 19.968C40.1791 20.8213 41.3738 21.9947 41.3738 23.488C41.3738 24.9813 40.7978 26.8373 39.6458 29.056C38.5364 31.232 37.5978 32.32 36.8298 32.32C36.6164 32.32 36.3604 32.2133 36.0618 32C35.8058 31.744 35.1658 31.488 34.1418 31.232C33.1604 30.9333 32.3071 30.784 31.5818 30.784C29.1071 30.784 27.1018 31.6587 25.5658 33.408C24.0724 35.1573 23.3258 37.8453 23.3258 41.472C23.3258 45.056 24.0938 47.7227 25.6298 49.472C27.2084 51.2213 29.1924 52.096 31.5818 52.096C32.5631 52.096 33.6511 51.968 34.8458 51.712C36.0831 51.4133 36.9578 51.008 37.4698 50.496C37.5551 50.4107 37.7258 50.368 37.9818 50.368C38.2378 50.368 38.7071 50.8587 39.3898 51.84C40.1151 52.7787 40.7764 54.0373 41.3738 55.616C41.9711 57.152 42.2698 58.3467 42.2698 59.2C42.2698 60.864 40.9898 62.1867 38.4298 63.168C35.8698 64.1493 32.8404 64.64 29.3418 64.64C23.7098 64.64 19.0804 62.656 15.4538 58.688C11.8271 54.72 10.0138 49.1307 10.0138 41.92C10.0138 34.6667 11.8698 28.9707 15.5818 24.832C19.3364 20.6933 24.0084 18.624 29.5978 18.624ZM66.1768 64.64C60.2034 64.64 55.3181 62.6773 51.5208 58.752C47.7661 54.8267 45.8888 49.1093 45.8888 41.6C45.8888 34.048 47.7874 28.3307 51.5848 24.448C55.4248 20.5653 60.3528 18.624 66.3688 18.624C72.4274 18.624 77.3128 20.544 81.0248 24.384C84.7368 28.1813 86.5928 33.9627 86.5928 41.728C86.5928 49.4507 84.6941 55.2107 80.8968 59.008C77.0994 62.7627 72.1928 64.64 66.1768 64.64ZM66.2408 30.912C64.1928 30.912 62.4648 31.8507 61.0568 33.728C59.6914 35.6053 59.0088 38.2507 59.0088 41.664C59.0088 45.0347 59.6701 47.6373 60.9928 49.472C62.3154 51.264 64.0434 52.16 66.1768 52.16C68.3528 52.16 70.1021 51.2427 71.4248 49.408C72.7901 47.5733 73.4728 44.9493 73.4728 41.536C73.4728 38.1227 72.7688 35.4987 71.3608 33.664C69.9954 31.8293 68.2888 30.912 66.2408 30.912ZM110.035 18.624C113.15 18.624 115.881 19.072 118.227 19.968C120.617 20.8213 121.811 21.9947 121.811 23.488C121.811 24.9813 121.235 26.8373 120.083 29.056C118.974 31.232 118.035 32.32 117.267 32.32C117.054 32.32 116.798 32.2133 116.499 32C116.243 31.744 115.603 31.488 114.579 31.232C113.598 30.9333 112.745 30.784 112.019 30.784C109.545 30.784 107.539 31.6587 106.003 33.408C104.51 35.1573 103.763 37.8453 103.763 41.472C103.763 45.056 104.531 47.7227 106.067 49.472C107.646 51.2213 109.63 52.096 112.019 52.096C113.001 52.096 114.089 51.968 115.283 51.712C116.521 51.4133 117.395 51.008 117.907 50.496C117.993 50.4107 118.163 50.368 118.419 50.368C118.675 50.368 119.145 50.8587 119.827 51.84C120.553 52.7787 121.214 54.0373 121.811 55.616C122.409 57.152 122.707 58.3467 122.707 59.2C122.707 60.864 121.427 62.1867 118.867 63.168C116.307 64.1493 113.278 64.64 109.779 64.64C104.147 64.64 99.5179 62.656 95.8913 58.688C92.2646 54.72 90.4513 49.1307 90.4513 41.92C90.4513 34.6667 92.3073 28.9707 96.0193 24.832C99.7739 20.6933 104.446 18.624 110.035 18.624ZM146.614 64.64C140.641 64.64 135.756 62.6773 131.958 58.752C128.204 54.8267 126.326 49.1093 126.326 41.6C126.326 34.048 128.225 28.3307 132.022 24.448C135.862 20.5653 140.79 18.624 146.806 18.624C152.865 18.624 157.75 20.544 161.462 24.384C165.174 28.1813 167.03 33.9627 167.03 41.728C167.03 49.4507 165.132 55.2107 161.334 59.008C157.537 62.7627 152.63 64.64 146.614 64.64ZM146.678 30.912C144.63 30.912 142.902 31.8507 141.494 33.728C140.129 35.6053 139.446 38.2507 139.446 41.664C139.446 45.0347 140.108 47.6373 141.43 49.472C142.753 51.264 144.481 52.16 146.614 52.16C148.79 52.16 150.54 51.2427 151.862 49.408C153.228 47.5733 153.91 44.9493 153.91 41.536C153.91 38.1227 153.206 35.4987 151.798 33.664C150.433 31.8293 148.726 30.912 146.678 30.912ZM202.249 64.128C198.537 64.128 196.531 63.5307 196.233 62.336L194.121 54.08H183.945L182.089 62.016C181.833 63.3387 179.785 64 175.945 64C173.897 64 172.382 63.8933 171.401 63.68C170.419 63.424 169.929 63.232 169.929 63.104L181.257 19.776C181.257 19.4347 184.179 19.264 190.025 19.264C195.87 19.264 198.793 19.4347 198.793 19.776L209.865 63.168C209.865 63.4667 208.883 63.7013 206.921 63.872C204.958 64.0427 203.401 64.128 202.249 64.128ZM185.545 45.952H192.265L189.385 32.704H189.001L185.545 45.952Z"/>
</mask>
<path d="M29.5978 18.624C32.7124 18.624 35.4431 19.072 37.7898 19.968C40.1791 20.8213 41.3738 21.9947 41.3738 23.488C41.3738 24.9813 40.7978 26.8373 39.6458 29.056C38.5364 31.232 37.5978 32.32 36.8298 32.32C36.6164 32.32 36.3604 32.2133 36.0618 32C35.8058 31.744 35.1658 31.488 34.1418 31.232C33.1604 30.9333 32.3071 30.784 31.5818 30.784C29.1071 30.784 27.1018 31.6587 25.5658 33.408C24.0724 35.1573 23.3258 37.8453 23.3258 41.472C23.3258 45.056 24.0938 47.7227 25.6298 49.472C27.2084 51.2213 29.1924 52.096 31.5818 52.096C32.5631 52.096 33.6511 51.968 34.8458 51.712C36.0831 51.4133 36.9578 51.008 37.4698 50.496C37.5551 50.4107 37.7258 50.368 37.9818 50.368C38.2378 50.368 38.7071 50.8587 39.3898 51.84C40.1151 52.7787 40.7764 54.0373 41.3738 55.616C41.9711 57.152 42.2698 58.3467 42.2698 59.2C42.2698 60.864 40.9898 62.1867 38.4298 63.168C35.8698 64.1493 32.8404 64.64 29.3418 64.64C23.7098 64.64 19.0804 62.656 15.4538 58.688C11.8271 54.72 10.0138 49.1307 10.0138 41.92C10.0138 34.6667 11.8698 28.9707 15.5818 24.832C19.3364 20.6933 24.0084 18.624 29.5978 18.624ZM66.1768 64.64C60.2034 64.64 55.3181 62.6773 51.5208 58.752C47.7661 54.8267 45.8888 49.1093 45.8888 41.6C45.8888 34.048 47.7874 28.3307 51.5848 24.448C55.4248 20.5653 60.3528 18.624 66.3688 18.624C72.4274 18.624 77.3128 20.544 81.0248 24.384C84.7368 28.1813 86.5928 33.9627 86.5928 41.728C86.5928 49.4507 84.6941 55.2107 80.8968 59.008C77.0994 62.7627 72.1928 64.64 66.1768 64.64ZM66.2408 30.912C64.1928 30.912 62.4648 31.8507 61.0568 33.728C59.6914 35.6053 59.0088 38.2507 59.0088 41.664C59.0088 45.0347 59.6701 47.6373 60.9928 49.472C62.3154 51.264 64.0434 52.16 66.1768 52.16C68.3528 52.16 70.1021 51.2427 71.4248 49.408C72.7901 47.5733 73.4728 44.9493 73.4728 41.536C73.4728 38.1227 72.7688 35.4987 71.3608 33.664C69.9954 31.8293 68.2888 30.912 66.2408 30.912ZM110.035 18.624C113.15 18.624 115.881 19.072 118.227 19.968C120.617 20.8213 121.811 21.9947 121.811 23.488C121.811 24.9813 121.235 26.8373 120.083 29.056C118.974 31.232 118.035 32.32 117.267 32.32C117.054 32.32 116.798 32.2133 116.499 32C116.243 31.744 115.603 31.488 114.579 31.232C113.598 30.9333 112.745 30.784 112.019 30.784C109.545 30.784 107.539 31.6587 106.003 33.408C104.51 35.1573 103.763 37.8453 103.763 41.472C103.763 45.056 104.531 47.7227 106.067 49.472C107.646 51.2213 109.63 52.096 112.019 52.096C113.001 52.096 114.089 51.968 115.283 51.712C116.521 51.4133 117.395 51.008 117.907 50.496C117.993 50.4107 118.163 50.368 118.419 50.368C118.675 50.368 119.145 50.8587 119.827 51.84C120.553 52.7787 121.214 54.0373 121.811 55.616C122.409 57.152 122.707 58.3467 122.707 59.2C122.707 60.864 121.427 62.1867 118.867 63.168C116.307 64.1493 113.278 64.64 109.779 64.64C104.147 64.64 99.5179 62.656 95.8913 58.688C92.2646 54.72 90.4513 49.1307 90.4513 41.92C90.4513 34.6667 92.3073 28.9707 96.0193 24.832C99.7739 20.6933 104.446 18.624 110.035 18.624ZM146.614 64.64C140.641 64.64 135.756 62.6773 131.958 58.752C128.204 54.8267 126.326 49.1093 126.326 41.6C126.326 34.048 128.225 28.3307 132.022 24.448C135.862 20.5653 140.79 18.624 146.806 18.624C152.865 18.624 157.75 20.544 161.462 24.384C165.174 28.1813 167.03 33.9627 167.03 41.728C167.03 49.4507 165.132 55.2107 161.334 59.008C157.537 62.7627 152.63 64.64 146.614 64.64ZM146.678 30.912C144.63 30.912 142.902 31.8507 141.494 33.728C140.129 35.6053 139.446 38.2507 139.446 41.664C139.446 45.0347 140.108 47.6373 141.43 49.472C142.753 51.264 144.481 52.16 146.614 52.16C148.79 52.16 150.54 51.2427 151.862 49.408C153.228 47.5733 153.91 44.9493 153.91 41.536C153.91 38.1227 153.206 35.4987 151.798 33.664C150.433 31.8293 148.726 30.912 146.678 30.912ZM202.249 64.128C198.537 64.128 196.531 63.5307 196.233 62.336L194.121 54.08H183.945L182.089 62.016C181.833 63.3387 179.785 64 175.945 64C173.897 64 172.382 63.8933 171.401 63.68C170.419 63.424 169.929 63.232 169.929 63.104L181.257 19.776C181.257 19.4347 184.179 19.264 190.025 19.264C195.87 19.264 198.793 19.4347 198.793 19.776L209.865 63.168C209.865 63.4667 208.883 63.7013 206.921 63.872C204.958 64.0427 203.401 64.128 202.249 64.128ZM185.545 45.952H192.265L189.385 32.704H189.001L185.545 45.952Z" fill="#FF4848"/>
<path d="M29.5978 18.624C32.7124 18.624 35.4431 19.072 37.7898 19.968C40.1791 20.8213 41.3738 21.9947 41.3738 23.488C41.3738 24.9813 40.7978 26.8373 39.6458 29.056C38.5364 31.232 37.5978 32.32 36.8298 32.32C36.6164 32.32 36.3604 32.2133 36.0618 32C35.8058 31.744 35.1658 31.488 34.1418 31.232C33.1604 30.9333 32.3071 30.784 31.5818 30.784C29.1071 30.784 27.1018 31.6587 25.5658 33.408C24.0724 35.1573 23.3258 37.8453 23.3258 41.472C23.3258 45.056 24.0938 47.7227 25.6298 49.472C27.2084 51.2213 29.1924 52.096 31.5818 52.096C32.5631 52.096 33.6511 51.968 34.8458 51.712C36.0831 51.4133 36.9578 51.008 37.4698 50.496C37.5551 50.4107 37.7258 50.368 37.9818 50.368C38.2378 50.368 38.7071 50.8587 39.3898 51.84C40.1151 52.7787 40.7764 54.0373 41.3738 55.616C41.9711 57.152 42.2698 58.3467 42.2698 59.2C42.2698 60.864 40.9898 62.1867 38.4298 63.168C35.8698 64.1493 32.8404 64.64 29.3418 64.64C23.7098 64.64 19.0804 62.656 15.4538 58.688C11.8271 54.72 10.0138 49.1307 10.0138 41.92C10.0138 34.6667 11.8698 28.9707 15.5818 24.832C19.3364 20.6933 24.0084 18.624 29.5978 18.624ZM66.1768 64.64C60.2034 64.64 55.3181 62.6773 51.5208 58.752C47.7661 54.8267 45.8888 49.1093 45.8888 41.6C45.8888 34.048 47.7874 28.3307 51.5848 24.448C55.4248 20.5653 60.3528 18.624 66.3688 18.624C72.4274 18.624 77.3128 20.544 81.0248 24.384C84.7368 28.1813 86.5928 33.9627 86.5928 41.728C86.5928 49.4507 84.6941 55.2107 80.8968 59.008C77.0994 62.7627 72.1928 64.64 66.1768 64.64ZM66.2408 30.912C64.1928 30.912 62.4648 31.8507 61.0568 33.728C59.6914 35.6053 59.0088 38.2507 59.0088 41.664C59.0088 45.0347 59.6701 47.6373 60.9928 49.472C62.3154 51.264 64.0434 52.16 66.1768 52.16C68.3528 52.16 70.1021 51.2427 71.4248 49.408C72.7901 47.5733 73.4728 44.9493 73.4728 41.536C73.4728 38.1227 72.7688 35.4987 71.3608 33.664C69.9954 31.8293 68.2888 30.912 66.2408 30.912ZM110.035 18.624C113.15 18.624 115.881 19.072 118.227 19.968C120.617 20.8213 121.811 21.9947 121.811 23.488C121.811 24.9813 121.235 26.8373 120.083 29.056C118.974 31.232 118.035 32.32 117.267 32.32C117.054 32.32 116.798 32.2133 116.499 32C116.243 31.744 115.603 31.488 114.579 31.232C113.598 30.9333 112.745 30.784 112.019 30.784C109.545 30.784 107.539 31.6587 106.003 33.408C104.51 35.1573 103.763 37.8453 103.763 41.472C103.763 45.056 104.531 47.7227 106.067 49.472C107.646 51.2213 109.63 52.096 112.019 52.096C113.001 52.096 114.089 51.968 115.283 51.712C116.521 51.4133 117.395 51.008 117.907 50.496C117.993 50.4107 118.163 50.368 118.419 50.368C118.675 50.368 119.145 50.8587 119.827 51.84C120.553 52.7787 121.214 54.0373 121.811 55.616C122.409 57.152 122.707 58.3467 122.707 59.2C122.707 60.864 121.427 62.1867 118.867 63.168C116.307 64.1493 113.278 64.64 109.779 64.64C104.147 64.64 99.5179 62.656 95.8913 58.688C92.2646 54.72 90.4513 49.1307 90.4513 41.92C90.4513 34.6667 92.3073 28.9707 96.0193 24.832C99.7739 20.6933 104.446 18.624 110.035 18.624ZM146.614 64.64C140.641 64.64 135.756 62.6773 131.958 58.752C128.204 54.8267 126.326 49.1093 126.326 41.6C126.326 34.048 128.225 28.3307 132.022 24.448C135.862 20.5653 140.79 18.624 146.806 18.624C152.865 18.624 157.75 20.544 161.462 24.384C165.174 28.1813 167.03 33.9627 167.03 41.728C167.03 49.4507 165.132 55.2107 161.334 59.008C157.537 62.7627 152.63 64.64 146.614 64.64ZM146.678 30.912C144.63 30.912 142.902 31.8507 141.494 33.728C140.129 35.6053 139.446 38.2507 139.446 41.664C139.446 45.0347 140.108 47.6373 141.43 49.472C142.753 51.264 144.481 52.16 146.614 52.16C148.79 52.16 150.54 51.2427 151.862 49.408C153.228 47.5733 153.91 44.9493 153.91 41.536C153.91 38.1227 153.206 35.4987 151.798 33.664C150.433 31.8293 148.726 30.912 146.678 30.912ZM202.249 64.128C198.537 64.128 196.531 63.5307 196.233 62.336L194.121 54.08H183.945L182.089 62.016C181.833 63.3387 179.785 64 175.945 64C173.897 64 172.382 63.8933 171.401 63.68C170.419 63.424 169.929 63.232 169.929 63.104L181.257 19.776C181.257 19.4347 184.179 19.264 190.025 19.264C195.87 19.264 198.793 19.4347 198.793 19.776L209.865 63.168C209.865 63.4667 208.883 63.7013 206.921 63.872C204.958 64.0427 203.401 64.128 202.249 64.128ZM185.545 45.952H192.265L189.385 32.704H189.001L185.545 45.952Z" fill="url(#paint0_linear_611_16136)"/>
<path d="M37.7898 19.968L37.0763 21.8364L37.0966 21.8442L37.1171 21.8515L37.7898 19.968ZM39.6458 29.056L37.8708 28.1344L37.8673 28.141L37.8639 28.1476L39.6458 29.056ZM36.0618 32L34.6475 33.4142L34.7646 33.5313L34.8993 33.6275L36.0618 32ZM34.1418 31.232L33.5594 33.1453L33.6077 33.16L33.6567 33.1723L34.1418 31.232ZM25.5658 33.408L24.0629 32.0884L24.0537 32.0989L24.0446 32.1095L25.5658 33.408ZM25.6298 49.472L24.1269 50.7916L24.1358 50.8018L24.145 50.8119L25.6298 49.472ZM34.8458 51.712L35.2648 53.6676L35.29 53.6622L35.315 53.6562L34.8458 51.712ZM37.4698 50.496L36.0555 49.0818L37.4698 50.496ZM39.3898 51.84L37.7479 52.9821L37.7766 53.0233L37.8072 53.0629L39.3898 51.84ZM41.3738 55.616L39.5032 56.3238L39.5064 56.3324L39.5097 56.3409L41.3738 55.616ZM38.4298 63.168L39.1456 65.0355L38.4298 63.168ZM15.4538 58.688L13.9775 60.0373L15.4538 58.688ZM15.5818 24.832L14.1005 23.4881L14.0929 23.4966L15.5818 24.832ZM29.5978 20.624C32.525 20.624 35.0048 21.0455 37.0763 21.8364L38.5032 18.0996C35.8813 17.0985 32.8998 16.624 29.5978 16.624V20.624ZM37.1171 21.8515C38.1663 22.2262 38.7647 22.6088 39.0763 22.9149C39.3417 23.1755 39.3738 23.3454 39.3738 23.488H43.3738C43.3738 20.6389 41.0253 18.9998 38.4624 18.0845L37.1171 21.8515ZM39.3738 23.488C39.3738 24.5131 38.9624 26.0319 37.8708 28.1344L41.4207 29.9776C42.6331 27.6427 43.3738 25.4495 43.3738 23.488H39.3738ZM37.8639 28.1476C37.339 29.1772 36.9122 29.8304 36.5954 30.1975C36.4392 30.3786 36.359 30.4318 36.3626 30.4295C36.3705 30.4245 36.5375 30.32 36.8298 30.32V34.32C38.1381 34.32 39.0783 33.4431 39.6241 32.8105C40.246 32.0896 40.8431 31.1107 41.4276 29.9644L37.8639 28.1476ZM36.8298 30.32C37.0534 30.32 37.201 30.3747 37.247 30.3938C37.2942 30.4135 37.2879 30.418 37.2242 30.3725L34.8993 33.6275C35.319 33.9273 35.9941 34.32 36.8298 34.32V30.32ZM37.476 30.5858C37.0528 30.1626 36.5178 29.9131 36.1325 29.759C35.697 29.5848 35.1857 29.4314 34.6268 29.2917L33.6567 33.1723C34.1218 33.2886 34.4425 33.3912 34.647 33.4729C34.7477 33.5132 34.7953 33.5386 34.8055 33.5445C34.8228 33.5544 34.75 33.5167 34.6475 33.4142L37.476 30.5858ZM34.7241 29.3187C33.6254 28.9843 32.5673 28.784 31.5818 28.784V32.784C32.0469 32.784 32.6954 32.8824 33.5594 33.1453L34.7241 29.3187ZM31.5818 28.784C28.5727 28.784 26.0049 29.8766 24.0629 32.0884L27.0686 34.7276C28.1986 33.4407 29.6415 32.784 31.5818 32.784V28.784ZM24.0446 32.1095C22.1074 34.3788 21.3258 37.6292 21.3258 41.472H25.3258C25.3258 38.0614 26.0375 35.9358 27.0869 34.7065L24.0446 32.1095ZM21.3258 41.472C21.3258 45.2902 22.1364 48.5246 24.1269 50.7916L27.1326 48.1524C26.0511 46.9207 25.3258 44.8218 25.3258 41.472H21.3258ZM24.145 50.8119C26.1089 52.9882 28.6354 54.096 31.5818 54.096V50.096C29.7494 50.096 28.308 49.4545 27.1145 48.1321L24.145 50.8119ZM31.5818 54.096C32.7333 54.096 33.9644 53.9463 35.2648 53.6676L34.4267 49.7564C33.3378 49.9897 32.3929 50.096 31.5818 50.096V54.096ZM35.315 53.6562C36.674 53.3281 37.9814 52.8127 38.884 51.9102L36.0555 49.0818C35.9341 49.2033 35.4922 49.4985 34.3765 49.7678L35.315 53.6562ZM38.884 51.9102C38.5789 52.2153 38.262 52.3115 38.1468 52.3403C38.0196 52.3721 37.9503 52.368 37.9818 52.368V48.368C37.7572 48.368 37.4746 48.3852 37.1767 48.4597C36.8908 48.5312 36.4459 48.6914 36.0555 49.0818L38.884 51.9102ZM37.9818 52.368C37.6981 52.368 37.4796 52.3013 37.3505 52.2502C37.2199 52.1984 37.1326 52.1433 37.0931 52.1166C37.0205 52.0674 37.014 52.0489 37.0805 52.1184C37.2093 52.2531 37.4285 52.523 37.7479 52.9821L41.0316 50.6979C40.6683 50.1757 40.3115 49.7095 39.971 49.3536C39.8029 49.1778 39.5884 48.9753 39.3344 48.8034C39.122 48.6598 38.6393 48.368 37.9818 48.368V52.368ZM37.8072 53.0629C38.3724 53.7944 38.9488 54.8588 39.5032 56.3238L43.2443 54.9082C42.604 53.2159 41.8578 51.763 40.9723 50.6171L37.8072 53.0629ZM39.5097 56.3409C40.085 57.8201 40.2698 58.7304 40.2698 59.2H44.2698C44.2698 57.9629 43.8572 56.4839 43.2378 54.8911L39.5097 56.3409ZM40.2698 59.2C40.2698 59.564 40.0625 60.4002 37.7139 61.3005L39.1456 65.0355C41.917 63.9731 44.2698 62.164 44.2698 59.2H40.2698ZM37.7139 61.3005C35.4358 62.1738 32.6603 62.64 29.3418 62.64V66.64C33.0206 66.64 36.3037 66.1249 39.1456 65.0355L37.7139 61.3005ZM29.3418 62.64C24.2411 62.64 20.1579 60.8703 16.93 57.3387L13.9775 60.0373C18.003 64.4417 23.1784 66.64 29.3418 66.64V62.64ZM16.93 57.3387C13.7414 53.8499 12.0138 48.8047 12.0138 41.92H8.01375C8.01375 49.4567 9.91281 55.5901 13.9775 60.0373L16.93 57.3387ZM12.0138 41.92C12.0138 35.0057 13.7777 29.8388 17.0706 26.1674L14.0929 23.4966C9.96178 28.1025 8.01375 34.3276 8.01375 41.92H12.0138ZM17.063 26.1758C20.4385 22.4551 24.5725 20.624 29.5978 20.624V16.624C23.4444 16.624 18.2344 18.9315 14.1005 23.4882L17.063 26.1758ZM51.5208 58.752L50.0754 60.1345L50.0833 60.1426L51.5208 58.752ZM51.5848 24.448L50.1627 23.0416L50.1549 23.0496L51.5848 24.448ZM81.0247 24.384L79.5868 25.7741L79.5946 25.7821L81.0247 24.384ZM80.8968 59.008L82.303 60.4302L82.311 60.4222L80.8968 59.008ZM61.0568 33.728L59.4568 32.528L59.4479 32.5398L59.4393 32.5517L61.0568 33.728ZM60.9928 49.472L59.3704 50.6416L59.3769 50.6507L59.3836 50.6597L60.9928 49.472ZM71.4248 49.408L69.8203 48.214L69.8112 48.2261L69.8024 48.2384L71.4248 49.408ZM71.3608 33.664L69.7563 34.858L69.7651 34.8699L69.7741 34.8816L71.3608 33.664ZM66.1768 62.64C60.6892 62.64 56.3414 60.8586 52.9582 57.3614L50.0833 60.1426C54.2948 64.496 59.7177 66.64 66.1768 66.64V62.64ZM52.966 57.3696C49.6848 53.9392 47.8887 48.7938 47.8887 41.6H43.8887C43.8887 49.4249 45.8474 55.7141 50.0755 60.1344L52.966 57.3696ZM47.8887 41.6C47.8887 34.3637 49.7057 29.2297 53.0146 25.8464L50.1549 23.0496C45.8692 27.4316 43.8887 33.7323 43.8887 41.6H47.8887ZM53.0068 25.8544C56.431 22.392 60.8273 20.624 66.3688 20.624V16.624C59.8782 16.624 54.4185 18.7386 50.1627 23.0416L53.0068 25.8544ZM66.3688 20.624C71.965 20.624 76.3037 22.3777 79.5868 25.774L82.4627 22.994C78.3218 18.7103 72.8898 16.624 66.3688 16.624V20.624ZM79.5946 25.7821C82.8021 29.0633 84.5928 34.2449 84.5928 41.728H88.5928C88.5928 33.6804 86.6714 27.2994 82.4549 22.9859L79.5946 25.7821ZM84.5928 41.728C84.5928 49.1537 82.7669 54.3094 79.4825 57.5938L82.311 60.4222C86.6213 56.1119 88.5928 49.7477 88.5928 41.728H84.5928ZM79.4905 57.5858C76.1162 60.9222 71.7388 62.64 66.1768 62.64V66.64C72.6467 66.64 78.0826 64.6031 82.303 60.4302L79.4905 57.5858ZM66.2408 28.912C63.4654 28.912 61.1796 30.2308 59.4568 32.528L62.6567 34.928C63.7499 33.4705 64.9201 32.912 66.2408 32.912V28.912ZM59.4393 32.5517C57.7331 34.8977 57.0088 38.0178 57.0088 41.664H61.0088C61.0088 38.4836 61.6497 36.313 62.6742 34.9043L59.4393 32.5517ZM57.0088 41.664C57.0088 45.2592 57.7085 48.3363 59.3704 50.6416L62.6151 48.3024C61.6317 46.9383 61.0088 44.8101 61.0088 41.664H57.0088ZM59.3836 50.6597C61.0638 52.9361 63.3764 54.16 66.1768 54.16V50.16C64.7105 50.16 63.567 49.5919 62.6019 48.2843L59.3836 50.6597ZM66.1768 54.16C69.0249 54.16 71.366 52.9094 73.0471 50.5776L69.8024 48.2384C68.8382 49.5759 67.6806 50.16 66.1768 50.16V54.16ZM73.0292 50.602C74.7501 48.2896 75.4727 45.1779 75.4727 41.536H71.4728C71.4728 44.7207 70.8301 46.8571 69.8203 48.214L73.0292 50.602ZM75.4727 41.536C75.4727 37.8833 74.7244 34.7619 72.9474 32.4464L69.7741 34.8816C70.8131 36.2355 71.4728 38.362 71.4728 41.536H75.4727ZM72.9652 32.47C71.2732 30.1963 69.0012 28.912 66.2408 28.912V32.912C67.5763 32.912 68.7177 33.4624 69.7563 34.858L72.9652 32.47ZM118.227 19.968L117.514 21.8364L117.534 21.8442L117.555 21.8515L118.227 19.968ZM120.083 29.056L118.308 28.1344L118.305 28.141L118.301 28.1476L120.083 29.056ZM116.499 32L115.085 33.4142L115.202 33.5313L115.337 33.6275L116.499 32ZM114.579 31.232L113.997 33.1453L114.045 33.16L114.094 33.1723L114.579 31.232ZM106.003 33.408L104.5 32.0884L104.491 32.0989L104.482 32.1095L106.003 33.408ZM106.067 49.472L104.564 50.7916L104.573 50.8018L104.582 50.8119L106.067 49.472ZM115.283 51.712L115.702 53.6676L115.727 53.6622L115.753 53.6562L115.283 51.712ZM117.907 50.496L116.493 49.0818L117.907 50.496ZM119.827 51.84L118.185 52.9821L118.214 53.0233L118.245 53.0629L119.827 51.84ZM121.811 55.616L119.941 56.3238L119.944 56.3324L119.947 56.3409L121.811 55.616ZM118.867 63.168L119.583 65.0355L118.867 63.168ZM95.8913 58.688L94.415 60.0373L95.8913 58.688ZM96.0192 24.832L94.538 23.4881L94.5304 23.4966L96.0192 24.832ZM110.035 20.624C112.963 20.624 115.442 21.0455 117.514 21.8364L118.941 18.0996C116.319 17.0985 113.337 16.624 110.035 16.624V20.624ZM117.555 21.8515C118.604 22.2262 119.202 22.6088 119.514 22.9149C119.779 23.1755 119.811 23.3454 119.811 23.488H123.811C123.811 20.6389 121.463 18.9998 118.9 18.0845L117.555 21.8515ZM119.811 23.488C119.811 24.5131 119.4 26.0319 118.308 28.1344L121.858 29.9776C123.071 27.6427 123.811 25.4495 123.811 23.488H119.811ZM118.301 28.1476C117.777 29.1772 117.35 29.8304 117.033 30.1975C116.877 30.3786 116.797 30.4318 116.8 30.4295C116.808 30.4245 116.975 30.32 117.267 30.32V34.32C118.576 34.32 119.516 33.4431 120.062 32.8105C120.683 32.0896 121.281 31.1107 121.865 29.9644L118.301 28.1476ZM117.267 30.32C117.491 30.32 117.638 30.3747 117.684 30.3938C117.732 30.4135 117.725 30.418 117.662 30.3725L115.337 33.6275C115.756 33.9273 116.432 34.32 117.267 34.32V30.32ZM117.913 30.5858C117.49 30.1626 116.955 29.9131 116.57 29.759C116.134 29.5848 115.623 29.4314 115.064 29.2917L114.094 33.1723C114.559 33.2886 114.88 33.3912 115.084 33.4729C115.185 33.5132 115.233 33.5386 115.243 33.5445C115.26 33.5544 115.187 33.5167 115.085 33.4142L117.913 30.5858ZM115.162 29.3187C114.063 28.9843 113.005 28.784 112.019 28.784V32.784C112.484 32.784 113.133 32.8824 113.997 33.1453L115.162 29.3187ZM112.019 28.784C109.01 28.784 106.442 29.8766 104.5 32.0884L107.506 34.7276C108.636 33.4407 110.079 32.784 112.019 32.784V28.784ZM104.482 32.1095C102.545 34.3788 101.763 37.6292 101.763 41.472H105.763C105.763 38.0614 106.475 35.9358 107.524 34.7065L104.482 32.1095ZM101.763 41.472C101.763 45.2902 102.574 48.5246 104.564 50.7916L107.57 48.1524C106.489 46.9207 105.763 44.8218 105.763 41.472H101.763ZM104.582 50.8119C106.546 52.9882 109.073 54.096 112.019 54.096V50.096C110.187 50.096 108.745 49.4545 107.552 48.1321L104.582 50.8119ZM112.019 54.096C113.171 54.096 114.402 53.9463 115.702 53.6676L114.864 49.7564C113.775 49.9897 112.83 50.096 112.019 50.096V54.096ZM115.753 53.6562C117.112 53.3281 118.419 52.8127 119.321 51.9102L116.493 49.0818C116.372 49.2033 115.93 49.4985 114.814 49.7678L115.753 53.6562ZM119.321 51.9102C119.016 52.2153 118.699 52.3115 118.584 52.3403C118.457 52.3721 118.388 52.368 118.419 52.368V48.368C118.195 48.368 117.912 48.3852 117.614 48.4597C117.328 48.5312 116.883 48.6914 116.493 49.0818L119.321 51.9102ZM118.419 52.368C118.136 52.368 117.917 52.3013 117.788 52.2502C117.657 52.1984 117.57 52.1433 117.531 52.1166C117.458 52.0674 117.451 52.0489 117.518 52.1184C117.647 52.2531 117.866 52.523 118.185 52.9821L121.469 50.6979C121.106 50.1757 120.749 49.7095 120.409 49.3536C120.24 49.1778 120.026 48.9753 119.772 48.8034C119.56 48.6598 119.077 48.368 118.419 48.368V52.368ZM118.245 53.0629C118.81 53.7944 119.386 54.8588 119.941 56.3238L123.682 54.9082C123.041 53.2159 122.295 51.763 121.41 50.6171L118.245 53.0629ZM119.947 56.3409C120.522 57.8201 120.707 58.7304 120.707 59.2H124.707C124.707 57.9629 124.295 56.4839 123.675 54.8911L119.947 56.3409ZM120.707 59.2C120.707 59.564 120.5 60.4002 118.151 61.3005L119.583 65.0355C122.355 63.9731 124.707 62.164 124.707 59.2H120.707ZM118.151 61.3005C115.873 62.1738 113.098 62.64 109.779 62.64V66.64C113.458 66.64 116.741 66.1249 119.583 65.0355L118.151 61.3005ZM109.779 62.64C104.679 62.64 100.595 60.8703 97.3675 57.3387L94.415 60.0373C98.4405 64.4417 103.616 66.64 109.779 66.64V62.64ZM97.3675 57.3387C94.1789 53.8499 92.4512 48.8047 92.4512 41.92H88.4512C88.4512 49.4567 90.3503 55.5901 94.415 60.0373L97.3675 57.3387ZM92.4512 41.92C92.4512 35.0057 94.2152 29.8388 97.5081 26.1674L94.5304 23.4966C90.3993 28.1025 88.4512 34.3276 88.4512 41.92H92.4512ZM97.5005 26.1758C100.876 22.4551 105.01 20.624 110.035 20.624V16.624C103.882 16.624 98.6719 18.9315 94.538 23.4882L97.5005 26.1758ZM131.958 58.752L130.513 60.1345L130.521 60.1426L131.958 58.752ZM132.022 24.448L130.6 23.0416L130.592 23.0496L132.022 24.448ZM161.462 24.384L160.024 25.7741L160.032 25.7821L161.462 24.384ZM161.334 59.008L162.74 60.4302L162.748 60.4222L161.334 59.008ZM141.494 33.728L139.894 32.528L139.885 32.5398L139.877 32.5517L141.494 33.728ZM141.43 49.472L139.808 50.6416L139.814 50.6507L139.821 50.6597L141.43 49.472ZM151.862 49.408L150.258 48.214L150.249 48.2261L150.24 48.2384L151.862 49.408ZM151.798 33.664L150.194 34.858L150.203 34.8699L150.212 34.8816L151.798 33.664ZM146.614 62.64C141.127 62.64 136.779 60.8586 133.396 57.3614L130.521 60.1426C134.732 64.496 140.155 66.64 146.614 66.64V62.64ZM133.404 57.3696C130.122 53.9392 128.326 48.7938 128.326 41.6H124.326C124.326 49.4249 126.285 55.7141 130.513 60.1344L133.404 57.3696ZM128.326 41.6C128.326 34.3637 130.143 29.2297 133.452 25.8464L130.592 23.0496C126.307 27.4316 124.326 33.7323 124.326 41.6H128.326ZM133.444 25.8544C136.869 22.392 141.265 20.624 146.806 20.624V16.624C140.316 16.624 134.856 18.7386 130.6 23.0416L133.444 25.8544ZM146.806 20.624C152.403 20.624 156.741 22.3777 160.024 25.774L162.9 22.994C158.759 18.7103 153.327 16.624 146.806 16.624V20.624ZM160.032 25.7821C163.24 29.0633 165.03 34.2449 165.03 41.728H169.03C169.03 33.6804 167.109 27.2994 162.892 22.9859L160.032 25.7821ZM165.03 41.728C165.03 49.1537 163.204 54.3094 159.92 57.5938L162.748 60.4222C167.059 56.1119 169.03 49.7477 169.03 41.728H165.03ZM159.928 57.5858C156.554 60.9222 152.176 62.64 146.614 62.64V66.64C153.084 66.64 158.52 64.6031 162.74 60.4302L159.928 57.5858ZM146.678 28.912C143.903 28.912 141.617 30.2308 139.894 32.528L143.094 34.928C144.187 33.4705 145.358 32.912 146.678 32.912V28.912ZM139.877 32.5517C138.171 34.8977 137.446 38.0178 137.446 41.664H141.446C141.446 38.4836 142.087 36.313 143.112 34.9043L139.877 32.5517ZM137.446 41.664C137.446 45.2592 138.146 48.3363 139.808 50.6416L143.053 48.3024C142.069 46.9383 141.446 44.8101 141.446 41.664H137.446ZM139.821 50.6597C141.501 52.9361 143.814 54.16 146.614 54.16V50.16C145.148 50.16 144.005 49.5919 143.039 48.2843L139.821 50.6597ZM146.614 54.16C149.462 54.16 151.804 52.9094 153.485 50.5776L150.24 48.2384C149.276 49.5759 148.118 50.16 146.614 50.16V54.16ZM153.467 50.602C155.188 48.2896 155.91 45.1779 155.91 41.536H151.91C151.91 44.7207 151.268 46.8571 150.258 48.214L153.467 50.602ZM155.91 41.536C155.91 37.8833 155.162 34.7619 153.385 32.4464L150.212 34.8816C151.251 36.2355 151.91 38.362 151.91 41.536H155.91ZM153.403 32.47C151.711 30.1963 149.439 28.912 146.678 28.912V32.912C148.014 32.912 149.155 33.4624 150.194 34.858L153.403 32.47ZM196.233 62.336L198.173 61.8509L198.17 61.8403L196.233 62.336ZM194.121 54.08L196.058 53.5843L195.674 52.08H194.121V54.08ZM183.945 54.08V52.08H182.359L181.997 53.6245L183.945 54.08ZM182.089 62.016L180.141 61.5605L180.133 61.5981L180.125 61.636L182.089 62.016ZM171.401 63.68L170.896 65.6152L170.936 65.6256L170.976 65.6344L171.401 63.68ZM169.929 63.104L167.994 62.5981L167.929 62.8469V63.104H169.929ZM181.257 19.776L183.192 20.2819L183.257 20.0331V19.776H181.257ZM198.793 19.776H196.793V20.0271L196.855 20.2705L198.793 19.776ZM209.865 63.168H211.865V62.9169L211.803 62.6735L209.865 63.168ZM206.921 63.872L206.747 61.8795L206.921 63.872ZM185.545 45.952L183.61 45.4472L182.956 47.952H185.545V45.952ZM192.265 45.952V47.952H194.746L194.219 45.5271L192.265 45.952ZM189.385 32.704L191.339 32.2791L190.997 30.704H189.385V32.704ZM189.001 32.704V30.704H187.456L187.066 32.1992L189.001 32.704ZM202.249 62.128C200.461 62.128 199.259 61.9798 198.532 61.7632C197.721 61.5218 198.056 61.3836 198.173 61.8509L194.292 62.8211C194.708 64.4831 196.195 65.2409 197.39 65.5968C198.668 65.9775 200.324 66.128 202.249 66.128V62.128ZM198.17 61.8403L196.058 53.5843L192.183 54.5757L194.295 62.8317L198.17 61.8403ZM194.121 52.08H183.945V56.08H194.121V52.08ZM181.997 53.6245L180.141 61.5605L184.036 62.4715L185.892 54.5355L181.997 53.6245ZM180.125 61.636C180.206 61.2191 180.519 61.3512 179.746 61.6008C179.019 61.8357 177.793 62 175.945 62V66C177.937 66 179.655 65.8336 180.975 65.4072C182.251 64.9954 183.716 64.1356 184.052 62.396L180.125 61.636ZM175.945 62C173.924 62 172.588 61.8913 171.826 61.7256L170.976 65.6344C172.177 65.8954 173.869 66 175.945 66V62ZM171.906 61.7448C171.435 61.622 171.159 61.5336 171.026 61.4815C170.947 61.4506 171.004 61.4653 171.113 61.5368C171.166 61.5709 171.317 61.673 171.474 61.8581C171.624 62.0339 171.929 62.4628 171.929 63.104H167.929C167.929 63.7772 168.249 64.2401 168.429 64.4519C168.618 64.673 168.815 64.8131 168.928 64.8872C169.161 65.0387 169.402 65.1414 169.568 65.2065C169.925 65.3464 170.385 65.482 170.896 65.6152L171.906 61.7448ZM171.864 63.6099L183.192 20.2819L179.322 19.2701L167.994 62.5981L171.864 63.6099ZM183.257 19.776C183.257 20.5419 182.831 21.0242 182.609 21.2185C182.394 21.4068 182.198 21.4878 182.15 21.5073C182.04 21.5524 182.008 21.5468 182.15 21.522C182.398 21.4785 182.853 21.4302 183.565 21.3886C184.966 21.3068 187.111 21.264 190.025 21.264V17.264C187.093 17.264 184.854 17.3065 183.332 17.3954C182.583 17.4391 181.942 17.4975 181.46 17.582C181.236 17.6212 180.93 17.6849 180.637 17.8047C180.498 17.8616 180.234 17.9812 179.973 18.2095C179.706 18.4438 179.257 18.9674 179.257 19.776H183.257ZM190.025 21.264C192.939 21.264 195.083 21.3068 196.484 21.3886C197.197 21.4302 197.651 21.4785 197.9 21.522C198.041 21.5468 198.009 21.5524 197.899 21.5073C197.851 21.4878 197.656 21.4068 197.441 21.2185C197.219 21.0242 196.793 20.5419 196.793 19.776H200.793C200.793 18.9674 200.344 18.4438 200.076 18.2095C199.816 17.9812 199.552 17.8616 199.412 17.8047C199.119 17.6849 198.813 17.6212 198.59 17.582C198.107 17.4975 197.466 17.4391 196.717 17.3954C195.196 17.3065 192.956 17.264 190.025 17.264V21.264ZM196.855 20.2705L207.927 63.6625L211.803 62.6735L200.731 19.2815L196.855 20.2705ZM207.865 63.168C207.865 62.611 208.106 62.1993 208.308 61.9661C208.492 61.7547 208.67 61.653 208.726 61.6227C208.834 61.5637 208.852 61.5778 208.664 61.6228C208.321 61.7048 207.704 61.7963 206.747 61.8795L207.094 65.8645C208.1 65.777 208.955 65.6659 209.594 65.5132C209.896 65.4408 210.282 65.3296 210.636 65.1373C210.846 65.0229 211.865 64.4432 211.865 63.168H207.865ZM206.747 61.8795C204.808 62.0481 203.317 62.128 202.249 62.128V66.128C203.485 66.128 205.108 66.0372 207.094 65.8645L206.747 61.8795ZM185.545 47.952H192.265V43.952H185.545V47.952ZM194.219 45.5271L191.339 32.2791L187.43 33.1289L190.31 46.3769L194.219 45.5271ZM189.385 30.704H189.001V34.704H189.385V30.704ZM187.066 32.1992L183.61 45.4472L187.48 46.4568L190.936 33.2088L187.066 32.1992Z" fill="white" mask="url(#path-1-outside-1_611_16136)"/>
<circle cx="13.5" cy="34.5" r="1.5" fill="white"/>
<circle cx="54.5" cy="25.5" r="1.5" fill="white"/>
<circle cx="105.5" cy="21.5" r="1.5" fill="white"/>
<circle cx="99.5" cy="24.5" r="1.5" fill="white"/>
<circle cx="135.5" cy="24.5" r="1.5" fill="white"/>
<circle cx="183.5" cy="22.5" r="1.5" fill="white"/>
<circle cx="139" cy="22" r="1" fill="white"/>
<circle cx="108.5" cy="20.5" r="0.5" fill="white"/>
<circle cx="102.5" cy="21.5" r="0.5" fill="white"/>
<circle cx="137.5" cy="23.5" r="0.5" fill="white"/>
<circle cx="185.5" cy="23.5" r="0.5" fill="white"/>
<circle cx="181.5" cy="25.5" r="0.5" fill="white"/>
<circle cx="182.5" cy="24.5" r="0.5" fill="white"/>
<circle cx="133.5" cy="25.5" r="0.5" fill="white"/>
<circle cx="132.5" cy="27.5" r="0.5" fill="white"/>
<circle cx="101.5" cy="22.5" r="0.5" fill="white"/>
<circle cx="56.5" cy="22.5" r="0.5" fill="white"/>
<path d="M57 22.5C57 22.7761 56.7761 23 56.5 23C56.2239 23 56 22.7761 56 22.5C56 22.2239 56.2239 22 56.5 22C56.7761 22 57 22.2239 57 22.5Z" fill="white"/>
<path d="M25 22.5C25 22.7761 24.7761 23 24.5 23C24.2239 23 24 22.7761 24 22.5C24 22.2239 24.2239 22 24.5 22C24.7761 22 25 22.2239 25 22.5Z" fill="white"/>
<path d="M26 20.5C26 20.7761 25.7761 21 25.5 21C25.2239 21 25 20.7761 25 20.5C25 20.2239 25.2239 20 25.5 20C25.7761 20 26 20.2239 26 20.5Z" fill="white"/>
<path d="M24 20.5C24 20.7761 23.7761 21 23.5 21C23.2239 21 23 20.7761 23 20.5C23 20.2239 23.2239 20 23.5 20C23.7761 20 24 20.2239 24 20.5Z" fill="white"/>
<ellipse cx="1.5" cy="2.5" rx="1.5" ry="2.5" transform="matrix(0.932107 0.362184 0.362184 -0.932107 49 31.6605)" fill="white"/>
<path d="M14.9607 30.9502C14.9607 30.3949 15.2622 29.9322 15.5141 29.4441C16.1615 28.1893 16.8652 27.0222 17.796 25.9585C18.6624 24.9682 19.6568 24.2009 20.7796 23.5083C21.1643 23.2709 21.5601 23.0383 21.9661 22.838C22.0007 22.8209 22.2608 22.7353 22.2 22.7353" stroke="white" stroke-width="2" stroke-linecap="round"/>
<path d="M15.2771 31.0576C15.2771 30.2814 15.8839 29.5583 16.1975 28.8723C16.4445 28.3321 16.7765 27.7918 17.1595 27.3344C18.2133 26.0757 19.4311 25.0614 20.6749 24.009C20.9898 23.7425 21.3749 23.5223 21.7022 23.3083C21.8317 23.2236 22.2849 23.081 22.3317 22.9876" stroke="white" stroke-width="2" stroke-linecap="round"/>
<defs>
<linearGradient id="paint0_linear_611_16136" x1="101.651" y1="-4.95029e-07" x2="117.349" y2="83" gradientUnits="userSpaceOnUse">
<stop stop-color="#FCA890" stop-opacity="0"/>
<stop offset="0.42" stop-color="#FCA890" stop-opacity="0.0611061"/>
<stop offset="0.9999" stop-color="#FCA890" stop-opacity="0.94"/>
<stop offset="1" stop-color="#FCA890"/>
</linearGradient>
</defs>
</svg>
