<svg width="336" height="146" viewBox="0 0 336 146" fill="none" xmlns="http://www.w3.org/2000/svg">
<circle cx="7.5" cy="21.5" r="6.75" stroke="#CFCED3" stroke-width="1.5"/>
<circle cx="15" cy="5" r="4.25" stroke="#CFCED3" stroke-width="1.5"/>
<path d="M161.974 7.39383C165.921 6.33438 170.079 6.33438 174.026 7.39383L195.435 13.1392C198.035 13.837 200.731 14.1059 203.418 13.9354L228.573 12.339C233.487 12.0271 238.374 13.2837 242.528 15.9276L251.818 21.84C254.976 23.8492 258.547 25.1164 262.265 25.5461L283.432 27.9929C288.901 28.625 293.577 32.2173 295.597 37.3382C297.358 41.8018 300.984 45.2717 305.52 46.8355L317.569 50.9886C322.218 52.5911 324.175 58.0957 321.582 62.2737C319.177 66.1475 319.987 71.1999 323.482 74.1283L324.034 74.5912C328.664 78.4711 327.878 85.808 322.531 88.6188L317.45 91.2896C313.557 93.3361 311.31 97.5535 311.783 101.926C312.29 106.609 309.183 110.92 304.581 111.921L287.528 115.63C282.61 116.7 278.135 119.244 274.7 122.922L273.074 124.663C268.814 129.224 262.9 131.881 256.661 132.037L233.938 132.604C230.899 132.679 227.9 133.314 225.091 134.477L208.885 141.183C204.93 142.82 200.6 143.333 196.372 142.666L171.856 138.799C169.301 138.396 166.699 138.396 164.144 138.799L139.628 142.666C135.4 143.333 131.07 142.82 127.115 141.183L110.909 134.477C108.1 133.314 105.101 132.679 102.062 132.604L79.3389 132.037C73.1001 131.881 67.1857 129.224 62.9262 124.663L61.3002 122.922C57.865 119.244 53.3902 116.7 48.4723 115.63L31.4192 111.921C26.8167 110.92 23.7102 106.609 24.2169 101.926C24.6899 97.5535 22.443 93.3361 18.5502 91.2896L13.4694 88.6188C8.12247 85.808 7.33622 78.4712 11.9662 74.5912L12.5185 74.1283C16.013 71.1998 16.8226 66.1475 14.4181 62.2737C11.8248 58.0957 13.7824 52.5911 18.4313 50.9886L30.4798 46.8355C35.0163 45.2717 38.6417 41.8018 40.4026 37.3382C42.4229 32.2173 47.099 28.625 52.5677 27.9929L73.7352 25.5461C77.4527 25.1164 81.0245 23.8492 84.1816 21.84L93.4717 15.9276C97.6262 13.2837 102.513 12.0271 107.427 12.339L132.582 13.9354C135.269 14.1059 137.965 13.837 140.565 13.1392L161.974 7.39383Z" stroke="#CFCED3" stroke-width="1.5"/>
</svg>
